HIERARCHY
ROOT Pelvis
{
	OFFSET 0.000000 0.000000 0.000000
	CHANNELS 6 Xposition Yposition Zposition Zrotation Yrotation Xrotation 
	JOINT Left_hip
	{
		OFFSET 0.068973 -0.091024 -0.007589
		CHANNELS 3 Zrotation Yrotation Xrotation
		JOINT Left_knee
		{
			OFFSET 0.036482 -0.391037 -0.003979
			CHANNELS 3 Zrotation Yrotation Xrotation
			JOINT Left_ankle
			{
				OFFSET -0.012239 -0.415469 -0.043440
				CHANNELS 3 Zrotation Yrotation Xrotation
				JOINT Left_foot
				{
					OFFSET 0.023806 -0.058558 0.118702
					CHANNELS 3 Zrotation Yrotation Xrotation
					End Site
					{
						OFFSET 0.000000 0.000000 0.000000
					}
				}
			}
		}
	}
	JOINT Right_hip
	{
		OFFSET -0.066552 -0.090468 -0.003847
		CHANNELS 3 Zrotation Yrotation Xrotation
		JOINT Right_knee
		{
			OFFSET -0.042435 -0.398340 -0.006400
			CHANNELS 3 Zrotation Yrotation Xrotation
			JOINT Right_ankle
			{
				OFFSET 0.014931 -0.415421 -0.041327
				CHANNELS 3 Zrotation Yrotation Xrotation
				JOINT Right_foot
				{
					OFFSET -0.021472 -0.049410 0.121889
					CHANNELS 3 Zrotation Yrotation Xrotation
					End Site
					{
						OFFSET 0.000000 0.000000 0.000000
					}
				}
			}
		}
	}
	JOINT Spine1
	{
		OFFSET -0.002904 0.105700 -0.022855
		CHANNELS 3 Zrotation Yrotation Xrotation
		JOINT Spine2
		{
			OFFSET 0.004179 0.132554 -0.002501
			CHANNELS 3 Zrotation Yrotation Xrotation
			JOINT Spine3
			{
				OFFSET 0.001987 0.049603 0.025988
				CHANNELS 3 Zrotation Yrotation Xrotation
				JOINT Neck
				{
					OFFSET -0.003935 0.211336 -0.045638
					CHANNELS 3 Zrotation Yrotation Xrotation
					JOINT Head
					{
						OFFSET 0.003906 0.065991 0.051018
						CHANNELS 3 Zrotation Yrotation Xrotation
						End Site
						{
							OFFSET 0.000000 0.000000 0.000000
						}
					}
				}
				JOINT Left_collar
				{
					OFFSET 0.072882 0.117751 -0.036270
					CHANNELS 3 Zrotation Yrotation Xrotation
					JOINT Left_shoulder
					{
						OFFSET 0.082118 0.032630 -0.005771
						CHANNELS 3 Zrotation Yrotation Xrotation
						JOINT Left_elbow
						{
							OFFSET 0.263305 -0.015144 -0.028095
							CHANNELS 3 Zrotation Yrotation Xrotation
							JOINT Left_wrist
							{
								OFFSET 0.250741 0.010115 -0.000759
								CHANNELS 3 Zrotation Yrotation Xrotation
								JOINT Left_palm
								{
									OFFSET 0.080683 -0.009989 -0.013613
									CHANNELS 3 Zrotation Yrotation Xrotation
									End Site
									{
										OFFSET 0.000000 0.000000 0.000000
									}
								}
							}
						}
					}
				}
				JOINT Right_collar
				{
					OFFSET -0.074811 0.116132 -0.040385
					CHANNELS 3 Zrotation Yrotation Xrotation
					JOINT Right_shoulder
					{
						OFFSET -0.085089 0.032943 -0.007484
						CHANNELS 3 Zrotation Yrotation Xrotation
						JOINT Right_elbow
						{
							OFFSET -0.254763 -0.014219 -0.020321
							CHANNELS 3 Zrotation Yrotation Xrotation
							JOINT Right_wrist
							{
								OFFSET -0.256597 0.009233 -0.005063
								CHANNELS 3 Zrotation Yrotation Xrotation
								JOINT Right_palm
								{
									OFFSET -0.080528 -0.007219 -0.010379
									CHANNELS 3 Zrotation Yrotation Xrotation
									End Site
									{
										OFFSET 0.000000 0.000000 0.000000
									}
								}
							}
						}
					}
				}
			}
		}
	}
}
MOTION
Frames: 13
Frame Time: 0.100000
0.182837 -0.281854 1.940092 -166.177485 -28.601686 28.998345 2.948297 9.134855 -73.894962 -2.548316 24.685517 43.402321 10.078804 10.834848 -2.895614 -12.855998 18.304479 -5.567954 -15.241283 -10.121640 -82.832614 0.043801 -8.584687 47.967719 -1.912066 0.212921 -1.898765 13.545590 -17.190774 1.933766 7.447845 -7.324852 69.918438 -4.392005 -1.847924 3.656649 4.027528 1.399056 1.388839 -13.713736 -1.493270 29.476646 8.850246 11.152696 -31.879425 19.172196 -36.078515 -16.348505 -3.568957 -21.720610 -17.016001 33.771891 -46.817488 -2.084925 2.204517 2.604100 40.436484 -0.072757 1.495884 -17.441871 -34.556026 38.222407 -13.847249 -3.548094 24.834989 -33.950684 -23.020619 30.288787 -3.133740 -4.147906 -8.135419 35.694801 0.006598 8.282102 -12.675590 
0.179855 -0.282446 1.943179 -166.606693 -28.296899 29.704208 3.251195 8.779319 -74.755747 -2.291944 24.537597 44.067439 10.144274 11.012955 -3.070166 -12.613074 18.137056 -4.865976 -15.271123 -10.353004 -82.971276 -0.104445 -8.983618 47.841082 -2.185372 0.311364 -1.995553 14.122955 -17.628213 2.021973 7.513569 -6.711050 70.025682 -3.749909 -1.877443 3.358942 4.420934 1.649329 1.200526 -13.409509 -1.091246 28.964189 8.871607 10.406856 -32.146113 19.568218 -36.168301 -16.714882 -2.962990 -21.382061 -17.085318 32.978281 -46.315487 -1.860086 2.155494 3.007655 40.141324 -0.614883 1.183248 -17.716422 -33.871919 38.872333 -14.081400 -3.721382 26.474245 -34.331455 -24.449795 30.678948 -4.171175 -4.558734 -8.463345 35.775689 0.441990 8.651879 -13.111051 
0.176385 -0.283523 1.945723 -167.769488 -27.926919 31.112908 4.152888 8.675698 -76.087055 -1.970446 24.279968 44.736545 9.338599 11.410806 -3.505402 -11.181955 17.997613 -3.280256 -14.903657 -10.410155 -83.350456 0.236474 -9.601420 47.374417 -1.308223 -1.065254 -2.059048 11.715493 -15.218175 3.031291 6.892690 -6.776137 70.590239 -3.613253 -2.772656 1.978698 4.262072 1.104046 0.835055 -16.468218 1.784663 21.181730 5.807971 8.814530 -32.705700 17.519626 -38.111898 -15.871340 0.625821 -18.609566 -18.817565 33.647055 -45.379539 -4.718870 8.128169 -0.791807 43.859848 -1.759655 0.201647 -18.110165 -29.834811 41.273768 -13.903196 -2.233499 29.416445 -30.306481 -22.391198 36.808758 1.117532 -10.977512 -2.550093 41.988517 2.578942 9.660802 -13.681742 
0.175400 -0.282827 1.947574 -168.021846 -28.011292 30.860138 4.637533 8.426742 -76.199439 -1.383035 24.141209 45.677632 8.437342 11.116809 -3.208485 -9.982161 19.566535 -5.607540 -14.315333 -10.313717 -83.362378 0.284936 -9.086141 47.823540 3.274840 -3.788280 -2.378792 1.951209 -8.218785 2.054943 5.824505 -6.784200 71.143893 -5.433708 -3.323559 1.060354 2.786188 0.473554 1.146126 -18.145325 0.868883 10.461638 6.698809 3.787504 -30.918621 16.251940 -40.675461 -16.126967 0.805953 -22.343314 -18.766074 29.722432 -48.300366 -1.509607 16.623453 -7.932154 45.593433 -1.095013 -1.038599 -15.838039 -26.316357 42.984513 -12.986569 3.686822 29.602187 -22.433066 -15.940762 44.108069 11.032479 -26.462353 13.358953 49.298712 7.346618 11.525303 -15.382598 
0.182258 -0.281498 1.946265 -167.752888 -24.923880 31.325730 3.962500 7.768181 -76.682190 -2.086447 23.666481 44.730157 8.146535 9.276705 -2.715816 -9.745200 20.782838 -7.361267 -14.825708 -10.733821 -83.394105 -0.816240 -8.643539 49.175084 4.780242 -6.186005 -3.402193 -2.084125 -6.036461 1.434383 6.148836 -7.182435 71.322268 -6.117523 -3.041845 0.112920 2.499540 0.348717 0.768317 -16.274908 -1.463832 6.073010 7.879219 2.614481 -30.815969 14.492714 -42.609542 -15.628435 -3.489680 -26.242788 -14.928728 23.820829 -49.696338 6.428406 16.044487 -7.880309 44.292284 -1.026044 -1.277812 -16.467145 -27.441211 43.984658 -14.217484 2.037048 29.217708 -24.117110 -17.504156 39.776974 4.913047 -31.843557 15.413143 46.827388 8.678524 11.674749 -16.646053 
0.191540 -0.275841 1.942833 -166.855550 -21.040064 31.550714 3.226312 6.823435 -77.715115 -3.316812 23.106403 44.365909 7.481360 8.093721 -3.104356 -8.364910 20.573094 -6.113935 -16.375938 -11.884565 -83.689918 -1.370527 -9.338310 51.720792 2.438331 -8.007580 -5.372406 0.847350 -6.701256 4.773334 7.189506 -7.293655 71.221155 -5.931522 -1.704460 0.199410 2.798439 0.994499 -0.651511 -12.334552 -5.530586 2.370514 8.600711 0.949867 -29.780906 13.229343 -46.238123 -16.093059 -6.027367 -29.367766 -9.201811 24.009085 -49.979862 8.175382 11.661350 -6.261105 39.085479 -2.323618 0.901046 -19.561880 -32.416699 49.218563 -19.895412 -11.593867 30.674955 -38.447058 -16.507387 16.323249 -17.983146 -23.725613 2.057454 26.825909 5.032976 7.575925 -15.771713 
0.195843 -0.272421 1.939233 -166.778462 -20.287530 30.675820 4.133549 6.662645 -77.383551 -4.501973 22.703701 44.059666 3.258908 9.075502 -3.299015 0.062747 21.686539 -5.716228 -16.089108 -12.192906 -83.711998 0.915716 -7.920035 52.740863 8.256402 -14.668561 -7.399763 -11.658839 4.943177 2.276291 7.258980 -6.665690 67.597584 -6.755545 -1.014844 6.230631 2.203511 0.963902 1.219923 -8.473457 -6.162026 -5.363083 10.626017 -0.909370 -27.881029 16.568203 -48.496381 -18.597291 -2.222621 -27.706994 -11.042754 24.243098 -50.196061 4.692139 10.292522 -6.991674 40.252418 -0.860934 1.438871 -19.442555 -39.339787 51.154969 -24.448800 -16.362922 25.892264 -37.668905 -10.188809 21.269680 -9.834383 -11.871019 3.434951 29.788261 1.176497 4.626004 -13.972151 
0.200147 -0.275996 1.940740 -167.381279 -18.683659 31.023767 4.335787 6.210712 -77.055057 -4.571097 21.728549 42.976480 3.280339 8.608168 -2.848165 0.005654 22.254797 -5.262040 -15.865952 -12.153296 -82.680232 0.485858 -8.706687 52.246949 7.447581 -14.943975 -7.371715 -10.322500 4.560570 2.227620 7.321388 -6.273365 67.736760 -6.188247 -1.139601 6.511774 2.522266 1.075108 1.099404 -7.841959 -5.421866 -5.672239 10.832069 -1.651500 -28.616497 16.379615 -48.184911 -18.378182 -1.977074 -27.524223 -11.859181 24.593038 -48.972110 3.650939 11.150418 -6.512722 40.253756 -0.683421 1.086511 -19.342188 -37.658726 51.559090 -23.657289 -13.874135 28.260020 -36.257300 -11.686187 23.395805 -9.288183 -14.278911 3.619531 30.402996 1.901419 5.252341 -14.301497 
0.200826 -0.279161 1.941961 -168.180925 -17.898570 31.695772 4.644703 6.424452 -77.035487 -4.825537 21.318394 42.091923 2.887235 8.534244 -2.586256 0.396567 21.911647 -5.172776 -15.353910 -11.937452 -82.290468 0.337678 -9.083741 51.481970 7.872552 -15.318575 -7.287651 -11.118942 4.874838 1.911245 6.951719 -6.186963 67.887746 -6.144008 -1.346998 5.658793 2.678513 0.991747 1.309365 -7.370423 -4.783800 -6.288527 11.359885 -1.236646 -28.314285 16.300406 -47.223272 -18.103288 -2.214305 -26.923564 -11.889130 24.075952 -48.917790 4.518912 11.711503 -7.010245 40.453599 -0.120161 0.910565 -18.912623 -36.616061 50.759597 -22.788316 -11.573689 28.494992 -34.776569 -10.491508 21.062743 -6.407327 -15.061500 4.372825 34.161795 1.710052 5.436867 -14.264275 
0.198832 -0.279808 1.944562 -168.155914 -17.587386 31.785815 4.831723 5.665632 -77.540569 -4.316397 20.927726 42.816869 3.401070 8.815190 -2.135280 -0.805910 22.020356 -5.972163 -15.310141 -12.268028 -82.366900 0.295957 -8.982108 51.793641 9.133535 -15.867555 -7.533563 -13.390606 6.568493 1.470020 7.293658 -6.266973 68.032430 -6.172658 -1.178693 5.303188 2.578507 1.151475 1.392625 -7.141193 -5.621972 -7.733554 12.317420 -2.600888 -28.261458 14.744733 -47.783104 -17.828615 -2.079572 -28.396612 -11.760918 22.882814 -48.797942 4.821960 14.431078 -7.816107 40.733579 -0.125402 -0.288963 -18.152102 -33.387845 50.952556 -20.638135 -12.824731 25.174958 -34.918441 -9.808264 18.506667 -7.798809 -22.952604 8.306228 38.208606 4.269122 6.800006 -15.862907 
0.196365 -0.279968 1.945550 -166.736335 -17.718302 32.661369 4.614683 4.342816 -79.124570 -3.908130 21.507851 43.026189 3.982767 9.577221 -0.982136 -1.708698 21.156604 -7.575055 -15.894258 -13.438687 -84.058847 0.493197 -8.379655 52.104230 11.013464 -16.504335 -7.838811 -16.914735 8.271051 2.052444 8.648522 -6.978440 68.211748 -7.776899 0.451039 4.338581 1.870716 2.179359 1.151081 -6.569254 -10.926280 -10.818101 14.972148 -3.387920 -28.684220 13.755740 -49.161745 -19.470526 -4.817384 -32.609863 -8.601027 25.322129 -50.889722 2.306602 14.890067 -7.200625 37.427767 -1.132968 -0.585341 -17.162005 -35.278077 51.405593 -21.300510 -18.673361 16.211080 -39.090893 -6.984463 7.230433 -17.893436 -22.765816 5.203407 35.574385 4.106125 6.208215 -16.854379 
0.194252 -0.277802 1.944129 -166.662964 -18.269663 32.079620 4.229684 4.705676 -78.865190 -4.022830 21.799196 43.566408 2.848123 9.923836 -1.920888 1.130750 20.393688 -6.780386 -16.484273 -13.375373 -84.095940 0.627731 -8.512975 52.673998 11.307411 -16.246640 -7.938764 -17.311874 7.167917 3.113652 8.651798 -6.766237 68.128276 -8.108079 1.083838 5.146243 1.765390 2.285928 0.369635 -5.785605 -13.192374 -10.832639 15.689162 -2.416696 -28.301557 12.941328 -50.352927 -18.585586 -6.505896 -32.247880 -6.077679 28.501485 -51.586956 -0.725494 9.041467 -5.819122 35.580121 -2.692165 1.670229 -19.741329 -37.633128 51.236336 -22.170023 -18.173246 11.997399 -38.947366 -5.734633 9.992433 -26.716286 -3.445107 0.486013 12.683654 -0.499279 2.138210 -13.488935 
0.192055 -0.284409 1.944870 -167.528519 -18.771502 31.658457 3.749228 4.046540 -77.066060 -2.439402 20.385551 42.713623 3.945001 9.599235 -2.434890 -0.521179 20.030746 -4.653039 -17.442621 -12.394444 -81.321696 -1.521086 -11.765571 50.783977 7.538132 -10.629668 -6.338238 -8.696311 -3.098209 6.925340 7.899715 -4.922791 70.753042 -6.915690 0.267522 2.159748 2.650303 2.134259 -2.988942 -6.771532 -13.426766 -5.182135 15.744499 -2.365929 -30.387806 6.016160 -51.632078 -12.299154 -8.690283 -31.291432 -3.418671 29.308506 -48.389665 -4.030375 5.583686 -5.970819 33.728280 -6.525615 3.032949 -25.180534 -29.357229 51.593045 -16.209949 -7.868143 14.770745 -33.849858 -17.791840 24.533149 -45.943702 -1.077322 5.800378 -26.788961 0.967488 0.748802 -11.914883 
